# xmcd
#
# Track frame offsets:
# 150
# 14566
# 29437
# 51223
#
# Disc length: 885 seconds
#
#
# Revision: 0
# Processed by: cddbd v1.5PL3 Copyright (c) Steve Scherf et al.
# Submitted via: FreeRIP 2.53 
#
DISCID=2e037304
DTITLE=Slaid Cleaves - Wishbones - bonus live CD
DYEAR=2004
DGENRE=country
TTITLE0=Breakdown
TTITLE1=Cold and Lonely
TTITLE2=One Good Year
TTITLE3=Horses
EXTD=Live bonus disc\nRecorded live on 3/3/2002 at the\nBlue Highway Festival, Utrecht, The Netherlands
EXTT0=
EXTT1=
EXTT2=
EXTT3=
PLAYORDER=
